<svg xmlns="http://www.w3.org/2000/svg" width="15" height="13" viewBox="0 0 15 13" fill="none">
<path d="M4.73754 7.44908L6.74213 5.44449L2.35754 1.06699C2.01754 0.726992 1.42963 0.819075 1.21713 1.25824C0.714209 2.31366 0.898376 3.60991 1.76963 4.48824L4.73754 7.44908ZM9.54004 6.16699C10.6238 6.66991 12.1467 6.31574 13.273 5.18949C14.6259 3.83657 14.888 1.89574 13.8467 0.854492C12.8125 -0.179675 10.8717 0.0753255 9.51171 1.42824C8.38546 2.55449 8.03129 4.07741 8.53421 5.16116L2.12379 11.5716C1.84754 11.8478 1.84754 12.2941 2.12379 12.5703C2.40004 12.8466 2.84629 12.8466 3.12254 12.5703L7.50004 8.20699L11.8775 12.5845C12.1538 12.8607 12.6 12.8607 12.8763 12.5845C13.1525 12.3082 13.1525 11.862 12.8763 11.5857L8.49879 7.20824L9.54004 6.16699Z" fill="#F2994A"/>
</svg>