<svg xmlns="http://www.w3.org/2000/svg" width="17" height="18" viewBox="0 0 17 18" fill="none">
  <g clip-path="url(#clip0_2727_6)">
    <path d="M8.49288 1.66675C4.58288 1.66675 1.41663 4.84008 1.41663 8.75008C1.41663 12.6601 4.58288 15.8334 8.49288 15.8334C12.41 15.8334 15.5833 12.6601 15.5833 8.75008C15.5833 4.84008 12.41 1.66675 8.49288 1.66675ZM8.49996 14.4167C5.36913 14.4167 2.83329 11.8809 2.83329 8.75008C2.83329 5.61925 5.36913 3.08341 8.49996 3.08341C11.6308 3.08341 14.1666 5.61925 14.1666 8.75008C14.1666 11.8809 11.6308 14.4167 8.49996 14.4167ZM8.34413 5.20842H8.30163C8.01829 5.20842 7.79163 5.43508 7.79163 5.71841V9.06175C7.79163 9.30966 7.91913 9.54342 8.13871 9.67092L11.0783 11.4347C11.3191 11.5763 11.6308 11.5055 11.7725 11.2647C11.9212 11.0238 11.8433 10.7051 11.5954 10.5634L8.85413 8.93425V5.71841C8.85413 5.43508 8.62746 5.20842 8.34413 5.20842Z" fill="#4F4F4F"/>
  </g>
  <defs>
    <clipPath id="clip0_2727_6">
      <rect width="17" height="17" fill="white" transform="translate(0 0.25)"/>
    </clipPath>
  </defs>
</svg>